<svg xmlns="http://www.w3.org/2000/svg" viewBox="0 0 55.21 41.41"><defs><style>.cls-1{fill:#02b4d7;}</style></defs><title>email</title><g id="Layer_2" data-name="Layer 2"><g id="Layer_1-2" data-name="Layer 1"><path class="cls-1" d="M42.56,32.2A3.45,3.45,0,1,1,46,28.75,3.45,3.45,0,0,1,42.56,32.2Zm-1.15-16A12.67,12.67,0,0,0,29.9,28.75c0,.39,0,.77.06,1.15H4.6a2.3,2.3,0,0,1-2.3-2.3V4.6a2.28,2.28,0,0,1,.19-.91L19.63,17.74a4.11,4.11,0,0,0,2.22.66A4,4,0,0,0,24,17.78a.76.76,0,0,0,.19-.12l17-14a2.29,2.29,0,0,1,.2.91ZM4.6,2.3H39.1a.7.7,0,0,1,.14,0L22.8,15.82a1.93,1.93,0,0,1-1.82.06L4.47,2.33A.5.5,0,0,1,4.6,2.3ZM43.71,16.16V4.6A4.61,4.61,0,0,0,39.1,0H4.6A4.6,4.6,0,0,0,0,4.6v23a4.6,4.6,0,0,0,4.6,4.6H30.39a12.63,12.63,0,0,0,18.49,7.51,1.15,1.15,0,1,0-1.15-2,10.35,10.35,0,1,1,5.18-9V29.9a2.3,2.3,0,0,1-4.6,0V25.3a1.15,1.15,0,0,0-2-.82A5.67,5.67,0,0,0,42.56,23a5.75,5.75,0,1,0,0,11.5,5.7,5.7,0,0,0,4.29-2,4.6,4.6,0,0,0,8.36-2.64V28.75A12.67,12.67,0,0,0,43.71,16.16Z"/></g></g></svg>