<svg xmlns="http://www.w3.org/2000/svg" viewBox="0 0 29.89 29.89"><defs><style>.cls-1{fill:#fff;}</style></defs><title>Asset 1</title><g id="Layer_2" data-name="Layer 2"><g id="Layer_1-2" data-name="Layer 1"><path class="cls-1" d="M22.43,27.9a5.48,5.48,0,1,1,5.48-5.48A5.49,5.49,0,0,1,22.43,27.9ZM5,22.92a3,3,0,0,1-3-3v-3A7,7,0,0,1,8.07,10a4.91,4.91,0,0,0,7.78,0A6.94,6.94,0,0,1,21.64,15,7.49,7.49,0,0,0,15,22.42a4.19,4.19,0,0,0,0,.5ZM9,3.49A1.5,1.5,0,0,1,10.47,2h3A1.5,1.5,0,0,1,15,3.49V7A3,3,0,0,1,9,7ZM23.73,15.07a8.93,8.93,0,0,0-6.94-6.89A4.82,4.82,0,0,0,17,7V3.49A3.49,3.49,0,0,0,13.46,0h-3A3.48,3.48,0,0,0,7,3.49V7a5.33,5.33,0,0,0,.15,1.2A9,9,0,0,0,0,16.94v3a5,5,0,0,0,5,5H15.39a7.46,7.46,0,1,0,8.33-9.84Z"/><path class="cls-1" d="M24.21,20.13l-2.46,2.46-1.1-1.11a1,1,0,0,0-1.41,0,1,1,0,0,0,0,1.41l1.82,1.81a.94.94,0,0,0,.7.29,1,1,0,0,0,.71-.29l3.17-3.17a1,1,0,0,0,0-1.4,1,1,0,0,0-1.41,0Z"/><path class="cls-1" d="M6,18.93H5a1,1,0,0,0,0,2H6a1,1,0,1,0,0-2Z"/><path class="cls-1" d="M10,18.93H9a1,1,0,0,0,0,2h1a1,1,0,0,0,0-2Z"/></g></g></svg>