<svg xmlns="http://www.w3.org/2000/svg" viewBox="0 0 38.14 38.14"><defs><style>.cls-1{fill:#02b4d7;}</style></defs><title>phone-svg</title><g id="Layer_2" data-name="Layer 2"><g id="Layer_1-2" data-name="Layer 1"><path class="cls-1" d="M36.72,31.79,34.78,35a3.26,3.26,0,0,1-1.93,1.5c-3.91,1.07-10.74.18-21.08-10.15S.54,9.2,1.62,5.29a3.28,3.28,0,0,1,1.5-1.94L6.35,1.41a1,1,0,0,1,1.31.3l2.8,4.2L12.8,9.43a1,1,0,0,1-.21,1.31L9.7,13a2.23,2.23,0,0,0-.59,2.86l.23.42c.81,1.49,1.82,3.34,5.51,7s5.54,4.7,7,5.51l.42.23a2.22,2.22,0,0,0,2.85-.59l2.25-2.89a1,1,0,0,1,1.31-.21l7.72,5.15A1,1,0,0,1,36.72,31.79Zm.42-2.37-7.72-5.15a2.26,2.26,0,0,0-3,.49l-2.25,2.89a1,1,0,0,1-1.23.26l-.43-.23a26,26,0,0,1-6.73-5.29,26.27,26.27,0,0,1-5.3-6.74l-.23-.43A1,1,0,0,1,10.48,14l2.89-2.24a2.25,2.25,0,0,0,.49-3L8.72,1a2.25,2.25,0,0,0-3-.68L2.47,2.26A4.55,4.55,0,0,0,.39,5C-.77,9.19.1,16.5,10.87,27.27c8.56,8.56,14.94,10.86,19.32,10.86a10.77,10.77,0,0,0,3-.39,4.56,4.56,0,0,0,2.7-2.07l1.94-3.23A2.25,2.25,0,0,0,37.14,29.42Z"/><path class="cls-1" d="M21.61,6.36a10.81,10.81,0,0,1,10.8,10.8.64.64,0,0,0,1.28,0A12.09,12.09,0,0,0,21.61,5.09a.64.64,0,0,0-.64.63A.64.64,0,0,0,21.61,6.36Z"/><path class="cls-1" d="M21.61,10.17a7,7,0,0,1,7,7,.64.64,0,0,0,.64.64.64.64,0,0,0,.63-.64A8.27,8.27,0,0,0,21.61,8.9a.64.64,0,1,0,0,1.27Z"/><path class="cls-1" d="M21.61,14a3.19,3.19,0,0,1,3.18,3.18.64.64,0,0,0,.63.64.64.64,0,0,0,.64-.64,4.46,4.46,0,0,0-4.45-4.45.64.64,0,0,0-.64.64A.64.64,0,0,0,21.61,14Z"/></g></g></svg>